<svg xmlns="http://www.w3.org/2000/svg" viewBox="0 0 224 26"><defs><style>.cls-1,.cls-2{fill:#fff;}.cls-1{stroke:#000;stroke-miterlimit:10;stroke-width:3px;}</style></defs><title>Asset 1</title><g id="Layer_2" data-name="Layer 2"><g id="Layer_1-2" data-name="Layer 1"><line class="cls-1" x1="13" y1="13" x2="212" y2="13"/><circle class="cls-2" cx="211.5" cy="12.5" r="12"/><path d="M211.5,1A11.5,11.5,0,1,1,200,12.5,11.51,11.51,0,0,1,211.5,1m0-1A12.5,12.5,0,1,0,224,12.5,12.5,12.5,0,0,0,211.5,0Z"/><circle class="cls-2" cx="12.5" cy="12.5" r="12"/><path d="M12.5,1A11.5,11.5,0,1,1,1,12.5,11.51,11.51,0,0,1,12.5,1m0-1A12.5,12.5,0,1,0,25,12.5,12.5,12.5,0,0,0,12.5,0Z"/><circle class="cls-2" cx="112.5" cy="13.5" r="12"/><path d="M112.5,2A11.5,11.5,0,1,1,101,13.5,11.51,11.51,0,0,1,112.5,2m0-1A12.5,12.5,0,1,0,125,13.5,12.5,12.5,0,0,0,112.5,1Z"/></g></g></svg>