<?xml version="1.0" encoding="utf-8"?>
<!-- Generator: Adobe Illustrator 16.0.0, SVG Export Plug-In . SVG Version: 6.00 Build 0)  -->
<!DOCTYPE svg PUBLIC "-//W3C//DTD SVG 1.1//EN" "http://www.w3.org/Graphics/SVG/1.1/DTD/svg11.dtd">
<svg version="1.1" id="Layer_1" xmlns="http://www.w3.org/2000/svg" xmlns:xlink="http://www.w3.org/1999/xlink" x="0px" y="0px"
	 width="13.002px" height="13px" viewBox="0 0 13.002 13" enable-background="new 0 0 13.002 13" xml:space="preserve">
<path fill="#FFFFFF" d="M6.5,0.467c-3.334,0-6.034,2.701-6.034,6.033c0,3.335,2.7,6.034,6.034,6.034
	c3.333,0,6.036-2.699,6.036-6.034C12.536,3.168,9.833,0.467,6.5,0.467z M8.24,3.719c-0.243-0.057-0.477-0.086-0.7-0.086
	c-0.222,0-0.377,0.053-0.472,0.159c-0.099,0.099-0.144,0.298-0.144,0.59v0.404h1.139v1.201H6.924v4.551H5.401V5.986H4.554V4.786
	h0.847V4.355c0-0.487,0.053-0.849,0.152-1.084c0.105-0.242,0.293-0.427,0.572-0.58c0.273-0.153,0.623-0.226,1.049-0.226
	c0.432,0,0.854,0.063,1.271,0.192L8.24,3.719z"/>
</svg>
