
<svg version="1.1" id="Layer_1" xmlns="http://www.w3.org/2000/svg" xmlns:xlink="http://www.w3.org/1999/xlink" x="0px" y="0px"
	 viewBox="0 0 700 700" style="enable-background:new 0 0 700 700;" xml:space="preserve">
<style type="text/css">
	.st0{fill:none;stroke:#000000;stroke-width:16;stroke-miterlimit:10;}
	.st1{fill:none;stroke:#000000;stroke-width:12;stroke-linecap:round;stroke-miterlimit:10;}
	.st2{fill:none;stroke:#000000;stroke-width:8;stroke-miterlimit:10;}
	.st3{fill:none;stroke:#000000;stroke-width:8;stroke-linecap:round;stroke-miterlimit:10;}
</style>
<g>
	<path class="st0" d="M348.4,685c-6.6-5.6-13.8-10.5-19.7-16.8c-61.3-64.8-116.9-134-162.2-211.1c-25.9-44-48.4-89.7-58.5-140.1
		c-18.9-94.1,8.3-174,78-239.2C222.2,44,265.7,23,314.8,16.7C419.4,3.2,503.2,40.1,563.4,126.8c34,48.9,46.7,104.4,40.5,163.8
		c-3.6,33.9-14.2,66.1-27.8,97.2C546.8,455.2,506.6,516,460.7,573c-27.7,34.3-57.5,66.9-86.7,100c-4.2,4.8-10,8.1-15.1,12.1
		C355.3,685,351.9,685,348.4,685z"/>
	<path class="st0" d="M488,261.3c0.1,71.3-58,129.5-129.2,129.6c-71.3,0.1-129.5-58-129.6-129.2c-0.1-71.3,57.9-129.5,129.2-129.6
		C429.7,132.1,487.9,190,488,261.3z"/>
</g>
<g>
	<g id="XMLID_1_">
		<g>
			<g>
				<path class="st0" d="M1402.8,714.5c3.8,0,7.6,0,11.4,0c3.1,0.4,6.2,0.7,9.3,1.2c23.6,4.2,42.9,15.7,57.4,34.8
					c16.3,21.4,21.9,45.6,17,72.1c-3.9,21.2-14.4,38.8-30.9,52.6c-20.5,17.1-44.2,23.9-70.7,20.5c-18.1-2.3-34-9.7-47.7-21.8
					c-15.9-14.1-25.8-31.6-29.6-52.5c-0.6-3.4-0.9-6.8-1.4-10.2c0-3.8,0-7.6,0-11.4c0.4-3,0.7-6.1,1.2-9.1c3.2-18.9,11.5-35.3,25-49
					c13.6-13.8,30-22.5,49.1-25.8C1396.1,715.3,1399.5,715,1402.8,714.5z"/>
			</g>
		</g>
	</g>
	<polyline class="st1" points="1408.5,750.5 1410.4,810 1454.1,854.5 	"/>
</g>
<g>
	<path class="st2" d="M304.2,188.3c2.5,0.2,5.1,0.4,7.6,0.6c21.6,1.5,42.6,5.9,62.7,14.2c14.6,6.1,28.1,14,39.2,25.4
		c7.9,8.1,13.9,17.4,16.6,28.5c3.5,14.6,0.6,28.2-7.4,40.8c-1.7,2.6-3.6,5-5.6,7.4c-0.7,0.9-0.8,1.4-0.3,2.4
		c5.9,11.2,10.7,22.9,14.8,34.9c0.7,1.9,0.5,3.6-0.9,5.1c-2.5,2.6-6.4,1.7-7.7-1.7c-1.9-5.1-3.7-10.3-5.8-15.4
		c-2.4-5.8-5.1-11.5-7.8-17.4c-1.8,1.2-3.3,2.4-4.8,3.4c-11.6,7.7-24.4,11.6-38.4,10.7c-12.1-0.8-22.6-5.6-31.6-13.7
		c-9.8-8.7-16.5-19.6-20.8-31.9c-4.1-11.6-7.5-23.5-11-35.3c-3-10-6.2-20-11-29.3c-4-7.6-9-14.4-15.5-20c-1.5-1.3-2.1-2.9-1.5-4.8
		c0.6-1.9,2.2-3.1,4.2-3.3c2.9-0.2,5.8-0.4,8.7-0.6C293.4,188.3,298.8,188.3,304.2,188.3z"/>
</g>
<g>
	<path class="st0" d="M2151,1062c-5-4.2-10.5-8-15-12.8c-46.8-49.4-89.2-102.2-123.7-161c-19.7-33.6-36.9-68.5-44.7-106.9
		c-14.4-71.8,6.3-132.8,59.5-182.5c27.6-25.8,60.9-41.8,98.3-46.7c79.8-10.3,143.8,17.9,189.7,84c25.9,37.3,35.6,79.7,30.9,125
		c-2.7,25.9-10.8,50.4-21.2,74.2c-22.4,51.4-53.1,97.8-88.1,141.3c-21.1,26.2-43.9,51-66.2,76.3c-3.2,3.6-7.7,6.2-11.5,9.2
		C2156.3,1062,2153.7,1062,2151,1062z"/>
	<path class="st0" d="M2257.6,738.7c0.1,54.4-44.2,98.8-98.6,98.9c-54.4,0.1-98.8-44.2-98.9-98.6c-0.1-54.4,44.2-98.8,98.6-98.9
		C2213.1,640.1,2257.5,684.3,2257.6,738.7z"/>
</g>
<g>
	<path d="M2117.3,683c1.9,0.2,3.9,0.3,5.8,0.4c16.5,1.1,32.5,4.5,47.8,10.8c11.1,4.6,21.4,10.7,29.9,19.4c6,6.2,10.6,13.3,12.7,21.8
		c2.7,11.2,0.5,21.5-5.7,31.1c-1.3,2-2.7,3.8-4.3,5.6c-0.6,0.7-0.6,1.1-0.2,1.8c4.5,8.6,8.2,17.5,11.3,26.6c0.5,1.5,0.4,2.7-0.7,3.9
		c-1.9,2-4.9,1.3-5.9-1.3c-1.5-3.9-2.8-7.9-4.4-11.8c-1.8-4.4-3.9-8.8-5.9-13.3c-1.3,1-2.5,1.8-3.7,2.6c-8.9,5.9-18.6,8.9-29.3,8.1
		c-9.2-0.6-17.3-4.3-24.1-10.5c-7.5-6.7-12.6-15-15.9-24.3c-3.1-8.9-5.7-17.9-8.4-26.9c-2.3-7.6-4.7-15.2-8.4-22.3
		c-3-5.8-6.8-11-11.8-15.2c-1.1-1-1.6-2.2-1.1-3.6c0.4-1.4,1.6-2.4,3.2-2.5c2.2-0.2,4.4-0.3,6.7-0.5C2109,683,2113.2,683,2117.3,683
		z M2106.8,690c1.7,2.4,3.5,4.8,5.1,7.3c4.4,7.1,7.4,14.9,9.8,22.9c2.7,8.8,5.2,17.7,7.9,26.4c2.3,7.4,5.3,14.4,10.2,20.6
		c4.6,5.7,10,10.4,17,12.7c13.8,4.5,26,1.1,36.9-8c0.6-0.5,0.5-0.9,0.2-1.5c-8.8-15.2-19.8-28.6-33.5-39.8
		c-6.8-5.6-14-10.5-21.7-14.9c-1.1-0.6-1.9-1.4-2-2.8c-0.1-1.4,0.4-2.6,1.6-3.4c1.3-0.9,2.6-0.6,3.9,0.2
		c23.7,13.4,42.5,31.8,56.4,55.2c0.2,0.4,0.4,0.7,0.7,1.1c8.4-9.8,11.4-23.6,4.9-36.5c-4.1-8.2-10.5-14.3-17.9-19.4
		c-9.5-6.6-20-11-31-14.3c-11.6-3.5-23.5-5.4-35.5-5.9C2115.4,689.8,2111.1,690,2106.8,690z"/>
</g>
<ellipse class="st1" cx="2155" cy="1060.5" rx="219" ry="36.5"/>
<path class="st3" d="M332.6,226.3c13.5,7.7,75.2,44.9,94.4,120.6"/>
</svg>
