<?xml version="1.0" encoding="utf-8"?>
<!-- Generator: Adobe Illustrator 16.0.0, SVG Export Plug-In . SVG Version: 6.00 Build 0)  -->
<!DOCTYPE svg PUBLIC "-//W3C//DTD SVG 1.1//EN" "http://www.w3.org/Graphics/SVG/1.1/DTD/svg11.dtd">
<svg version="1.1" id="Capa_1" xmlns="http://www.w3.org/2000/svg" xmlns:xlink="http://www.w3.org/1999/xlink" x="0px" y="0px"
	 width="168px" height="181px" viewBox="0 0 168 181" enable-background="new 0 0 168 181" xml:space="preserve">
<path fill="#6F89D1" stroke="#F49351" stroke-width="4" stroke-miterlimit="10" d="M19.709,103.931
	c0,35.508,28.784,64.291,64.29,64.291c35.509,0,64.292-28.783,64.292-64.291c0-35.507-28.783-64.291-64.292-64.291
	C48.493,39.64,19.709,68.424,19.709,103.931"/>
<g>
	
		<rect x="29.58" y="17.545" transform="matrix(0.7905 -0.6125 0.6125 0.7905 -18.6091 50.476)" fill="#D8D9DA" width="69.783" height="69.784"/>
	<g>
		<defs>
			
				<rect id="SVGID_3_" x="29.579" y="17.546" transform="matrix(-0.6125 -0.7905 0.7905 -0.6125 62.512 135.5173)" width="69.784" height="69.783"/>
		</defs>
		<clipPath id="SVGID_2_">
			<use xlink:href="#SVGID_3_"  overflow="visible"/>
		</clipPath>
		<g clip-path="url(#SVGID_2_)">
			<path fill="#94C749" d="M76.218,88.429L49.32,115.968c-1.174,1.195-1.014,3.151,0.335,4.146l8.295,6.109
				c0.65,0.481,1.479,0.652,2.271,0.468l14.085-3.328c0.774-0.182,1.43-0.687,1.803-1.389l13.506-25.416
				c0.705-1.333,0.213-2.991-1.114-3.716l-8.989-4.905C78.428,87.342,77.081,87.546,76.218,88.429z"/>
			<path fill="none" stroke="#A0CBFD" stroke-width="3.8609" stroke-miterlimit="10" d="M88.877-2.534
				c-4.094,1.351-6.819,5.533-7.325,9.813c-0.51,4.28,0.888,8.592,2.962,12.37c2.075,3.777,4.815,7.139,7.287,10.672
				c2.468,3.531,4.709,7.339,5.584,11.561c0.744,3.578,0.465,7.284,0.771,10.929c1.02,12.085,8.283,22.617,15.304,32.502"/>
			<path fill="none" stroke="#FFFFFF" stroke-width="2.1235" stroke-miterlimit="10" d="M38.127,103.974
				c-2.906,2.252-6.021,3.832-9.262,4.699c-5.368,1.44-11,0.807-15.458-1.74l-1.114-0.638L-5.864,64.356l0.164-1.093
				c0.453-3.019,2.124-5.841,4.586-7.747c0.823-0.64,1.717-1.162,2.657-1.553c1.284-0.54,2.66-0.833,4.046-0.892
				c2.71-0.117,5.468,0.657,7.664,2.258c1.243,0.903,2.193,1.961,3.033,2.894c0.458,0.505,0.893,0.987,1.313,1.379
				c2.622,2.425,6.703,3.173,11.021,3.967c4.793,0.878,10.226,1.88,14.471,5.497c4.539,3.873,6.874,10.286,6.091,16.735
				c-0.826,6.804-4.619,11.976-7.658,15.12C40.45,102.034,39.306,103.061,38.127,103.974L38.127,103.974z"/>
			<path fill="#A0CBFD" d="M15.326,103.582c3.741,2.14,8.372,2.479,12.538,1.363c4.168-1.12,7.887-3.605,10.884-6.709
				c3.417-3.534,6.009-8.021,6.603-12.9c0.591-4.882-1.027-10.142-4.766-13.331c-7.028-5.996-18.825-3.296-25.608-9.568
				c-1.383-1.281-2.472-2.875-3.995-3.983c-2.251-1.642-5.375-2.008-7.947-0.928c-2.57,1.072-4.501,3.552-4.917,6.311
				L15.326,103.582z"/>
			<path fill="none" stroke="#FFFFFF" stroke-width="2.1235" stroke-miterlimit="10" d="M-9.512,53.159
				c4.819-3.409,9.695-6.846,15.142-9.129c5.446-2.28,11.593-3.342,17.304-1.828c3.316,0.88,6.436,2.607,9.859,2.892
				c4.852,0.402,9.404-2.141,13.609-4.595c17.104-9.993,34.211-19.985,51.316-29.979"/>
			<path fill="#94C749" d="M29.636,49.062c-2.046-0.328-4.913-1.688-6.981-1.673c-2.004,0.017-3.633,1.191-4.254,3.279
				c-0.799,2.691,0.574,5.546,3.107,6.756c2.961,1.42,6.255,1.539,9.509,2.021c7.354,1.08,14.207,4.318,19.745,9.111
				c0.899,0.779,2.245-0.136,1.856-1.262l-6.031-18.142c-0.557-1.668-2.442-2.485-4.041-1.742
				C38.621,49.23,33.786,49.731,29.636,49.062z"/>
			<polyline fill="none" stroke="#FFFFFF" stroke-width="2.1235" stroke-miterlimit="10" points="12.452,54.802 16.977,41.497 
				33.34,22.498 48.552,-6.382 			"/>
			<path fill="none" stroke="#FFFFFF" stroke-width="2.1235" stroke-miterlimit="10" d="M51.011,37.807"/>
			<path fill="none" stroke="#FFFFFF" stroke-width="2.1235" stroke-miterlimit="10" d="M46.778,73.547"/>
			<path fill="none" stroke="#FFFFFF" stroke-width="2.1235" stroke-miterlimit="10" d="M46.364,73.125
				c2.662,1.005,5.742,0.838,8.284-0.443c0.103-0.054,0.207-0.108,0.314-0.166c3.468-1.911,5.009-6.086,3.776-9.85l-8.061-24.602
				L23.121,13.323"/>
			
				<line fill="none" stroke="#FFFFFF" stroke-width="2.1235" stroke-miterlimit="10" x1="57.141" y1="70.949" x2="94.16" y2="91.131"/>
			<polyline fill="none" stroke="#FFFFFF" stroke-width="2.1235" stroke-miterlimit="10" points="126.395,53.941 76.962,81.756 
				40.942,120.157 			"/>
			<polyline fill="none" stroke="#FFFFFF" stroke-width="2.1235" stroke-miterlimit="10" points="47.37,-7.908 70.717,26.295 
				82.411,55.591 92.227,73.168 			"/>
			
				<line fill="none" stroke="#FFFFFF" stroke-width="0.9652" stroke-miterlimit="10" x1="25.232" y1="62.91" x2="28.194" y2="43.822"/>
			<path fill="none" stroke="#FFFFFF" stroke-width="0.9652" stroke-miterlimit="10" d="M39.928,67.008
				c-0.422-4.12,1.562-8.228,4.513-11.139c2.947-2.908,6.776-4.762,10.665-6.192"/>
			
				<line fill="none" stroke="#FFFFFF" stroke-width="0.9652" stroke-miterlimit="10" x1="26.954" y1="53.988" x2="43.366" y2="57.036"/>
			<polygon fill="#C5C0BC" points="39.659,33.719 31.464,41.678 27.771,36.912 36.745,29.957 			"/>
			<polygon fill="#C5C0BC" points="28.306,32.834 29.253,34.054 35.918,28.889 33.967,26.37 			"/>
			<polygon fill="#C5C0BC" points="27.839,39.24 25.301,41.206 23.129,38.402 25.268,35.922 			"/>
			<path fill="#94C749" d="M44.683,35.93c-0.587-0.534-1.406-0.956-2.158-0.704c-0.465,0.154-0.811,0.532-1.136,0.897
				c-0.5,0.561-1.005,1.123-1.503,1.685c-0.421,0.47-0.853,0.958-1.05,1.554c-0.199,0.598-0.105,1.336,0.389,1.726
				c0.365,0.291,0.885,0.332,1.337,0.222c0.454-0.111,0.861-0.36,1.261-0.602c1.282-0.775,2.563-1.552,3.849-2.328l0.356-0.215
				c0.137-0.206,0.271-0.412,0.407-0.619C45.753,37.135,45.272,36.467,44.683,35.93z"/>
			<path fill="none" stroke="#FFFFFF" stroke-width="0.9652" stroke-miterlimit="10" d="M37.354,43.895
				c-0.947-1.325-1.139-3.16-0.477-4.651c0.358-0.805,0.936-1.495,1.523-2.146c1.661-1.848,3.493-3.532,5.471-5.031"/>
			
				<rect x="10.838" y="20.232" transform="matrix(0.7904 -0.6125 0.6125 0.7904 -11.1651 16.5781)" fill="#C5C0BC" width="15.616" height="8.75"/>
			
				<rect x="4.059" y="31.031" transform="matrix(0.7905 -0.6125 0.6125 0.7905 -19.4982 10.8576)" fill="#C5C0BC" width="4.121" height="5.791"/>
			
				<rect x="-0.596" y="34.639" transform="matrix(0.7906 -0.6124 0.6124 0.7906 -22.6779 8.7573)" fill="#C5C0BC" width="4.121" height="5.79"/>
			
				<rect x="-5.25" y="38.246" transform="matrix(0.7906 -0.6124 0.6124 0.7906 -25.8613 6.6628)" fill="#C5C0BC" width="4.121" height="5.791"/>
			<path fill="none" stroke="#FFFFFF" stroke-width="0.9652" stroke-miterlimit="10" d="M9.48,42.351
				c1.375-2.127,2.798-4.43,2.692-6.957c-0.057-1.398-0.592-2.746-1.328-3.936c-0.736-1.19-1.667-2.248-2.594-3.3"/>
			<circle fill="#94C749" cx="15.8" cy="38.901" r="0.663"/>
			<path fill="#94C749" d="M17.515,35.895c-0.29,0.225-0.343,0.641-0.119,0.931c0.225,0.29,0.642,0.342,0.933,0.117
				c0.287-0.223,0.341-0.641,0.116-0.93C18.221,35.724,17.803,35.671,17.515,35.895z"/>
			<circle fill="#94C749" cx="29.335" cy="22.7" r="0.664"/>
			<path fill="#94C749" d="M7.98,39.91c-0.292,0.225-0.344,0.642-0.118,0.932c0.223,0.289,0.64,0.343,0.931,0.117
				c0.287-0.223,0.341-0.641,0.118-0.931C8.686,39.739,8.267,39.687,7.98,39.91z"/>
			<circle fill="#94C749" cx="10.94" cy="51.058" r="0.663"/>
			<circle fill="#94C749" cx="17.457" cy="48.718" r="0.663"/>
			<circle fill="#94C749" cx="37.132" cy="21.763" r="0.664"/>
			<circle fill="#94C749" cx="56.733" cy="21.708" r="0.664"/>
			<circle fill="#94C749" cx="60.132" cy="19.074" r="0.664"/>
			<circle fill="#94C749" cx="59.289" cy="36.299" r="0.663"/>
			<circle fill="#94C749" cx="90.557" cy="35.67" r="0.663"/>
			<circle fill="#94C749" cx="86.573" cy="13.175" r="0.663"/>
			<path fill="#94C749" d="M58.218,2.734c-0.292,0.226-0.346,0.643-0.121,0.933c0.225,0.289,0.641,0.342,0.935,0.116
				c0.286-0.222,0.339-0.639,0.114-0.928C58.921,2.564,58.504,2.512,58.218,2.734z"/>
			<circle fill="#94C749" cx="64.085" cy="7.063" r="0.662"/>
			<circle fill="#94C749" cx="76.966" cy="6.102" r="0.664"/>
			<path fill="#94C749" d="M100.607,30.206c-0.286,0.222-0.341,0.641-0.115,0.932c0.225,0.29,0.644,0.341,0.93,0.118
				c0.292-0.227,0.344-0.642,0.119-0.931C101.315,30.033,100.901,29.979,100.607,30.206z"/>
			<path fill="#94C749" d="M28.333,40.959c-0.292,0.227-0.344,0.643-0.118,0.932c0.225,0.291,0.639,0.344,0.931,0.117
				c0.287-0.222,0.343-0.639,0.118-0.93C29.038,40.788,28.62,40.738,28.333,40.959z"/>
			<circle fill="#94C749" cx="33.727" cy="42.505" r="0.664"/>
			<circle fill="#94C749" cx="44.84" cy="44.516" r="0.664"/>
			<circle fill="#94C749" cx="48.617" cy="70.179" r="0.664"/>
			<circle fill="#94C749" cx="77.485" cy="78.559" r="0.664"/>
			<circle fill="#94C749" cx="60.827" cy="94.258" r="0.664"/>
			<circle fill="#94C749" cx="55.681" cy="99.829" r="0.664"/>
			<circle fill="#94C749" cx="46.094" cy="110.547" r="0.664"/>
			<circle fill="#94C749" cx="88.693" cy="72.567" r="0.664"/>
			<path fill="#94C749" d="M99.718,71.245c-0.291,0.224-0.341,0.641-0.117,0.93c0.227,0.291,0.639,0.343,0.93,0.118
				c0.293-0.227,0.346-0.641,0.12-0.931C100.426,71.073,100.011,71.018,99.718,71.245z"/>
			<circle fill="#94C749" cx="105.514" cy="62.515" r="0.664"/>
			<circle fill="#94C749" cx="118.003" cy="62.789" r="0.664"/>
			<circle fill="#94C749" cx="94.742" cy="84.065" r="0.663"/>
			<circle fill="#94C749" cx="51.595" cy="76.958" r="0.664"/>
			<circle fill="#94C749" cx="104.904" cy="41.394" r="0.664"/>
			<path fill="#94C749" d="M109.27,41.383c-0.286,0.223-0.343,0.64-0.116,0.932c0.224,0.29,0.642,0.34,0.928,0.116
				c0.293-0.226,0.346-0.64,0.12-0.93C109.976,41.21,109.561,41.156,109.27,41.383z"/>
			<circle fill="#94C749" cx="78.015" cy="52.437" r="0.664"/>
			<circle fill="#94C749" cx="67.232" cy="72.391" r="0.662"/>
			<circle fill="#94C749" cx="71.814" cy="52.951" r="0.663"/>
			<path fill="#94C749" d="M76.573,48.058c-0.288,0.224-0.34,0.639-0.115,0.93c0.224,0.288,0.641,0.343,0.928,0.12
				c0.291-0.226,0.342-0.642,0.118-0.931C77.278,47.887,76.864,47.833,76.573,48.058z"/>
			<circle fill="#94C749" cx="56.695" cy="46.015" r="0.664"/>
			<path fill="#94C749" d="M52.842,70.034c-0.292,0.226-0.343,0.643-0.119,0.933c0.226,0.289,0.642,0.343,0.932,0.117
				c0.287-0.223,0.343-0.642,0.117-0.93C53.548,69.864,53.128,69.812,52.842,70.034z"/>
			
				<rect x="17.951" y="43.629" transform="matrix(-0.9769 -0.2139 0.2139 -0.9769 27.6367 93.4298)" fill="#C5C0BC" width="1.844" height="3.181"/>
			
				<line fill="none" stroke="#FFFFFF" stroke-width="0.9652" stroke-miterlimit="10" x1="44.104" y1="31.841" x2="61.23" y2="12.398"/>
			<path fill="none" stroke="#FFFFFF" stroke-width="2.1235" stroke-miterlimit="10" d="M55.052,2.38
				c2.012-1.751,4.727-2.676,7.392-2.512c3.161,0.194,6.06,1.82,9.183,2.331c2.814,0.46,5.718-0.007,8.421-0.914
				c2.705-0.91,5.238-2.249,7.76-3.584"/>
			<polyline fill="none" stroke="#FFFFFF" stroke-width="2.1235" stroke-miterlimit="10" points="55.753,55.363 82.411,55.591 
				116.898,28.866 			"/>
			<path fill="#94C749" d="M92.659,51.724l-5.663,4.387c-0.375,0.291-0.481,0.813-0.251,1.226l6.075,10.918
				c0.256,0.469,0.852,0.633,1.313,0.371l2.698-1.536c0.424-0.238,0.601-0.76,0.41-1.209c-1.811-4.228-2.872-8.823-3.035-13.423
				C94.182,51.672,93.277,51.244,92.659,51.724z"/>
			<path fill="none" stroke="#FFFFFF" stroke-width="0.9652" stroke-miterlimit="10" d="M46.354,94.471
				c5.22,2.092,10.937,2.942,16.542,2.459"/>
			<path fill="none" stroke="#FFFFFF" stroke-width="0.9652" stroke-miterlimit="10" d="M54.834,49.731
				c6.479-4.824,12.958-9.649,19.435-14.474"/>
			<path fill="none" stroke="#FFFFFF" stroke-width="0.9652" stroke-miterlimit="10" d="M111.63,33.679
				c-3.752,3.319-5.332,8.891-3.888,13.689c0.834,2.768,2.542,5.169,4.021,7.651c2.963,4.997,5.06,10.503,6.165,16.206"/>
			<polygon fill="#C5C0BC" points="57.56,31.188 66.777,25.589 62.819,19.96 54.097,26.719 			"/>
			
				<rect x="49.666" y="27.632" transform="matrix(0.7904 -0.6126 0.6126 0.7904 -8.0673 38.2969)" fill="#C5C0BC" width="4.536" height="6.612"/>
			<polygon fill="#C5C0BC" points="40.803,14.171 38.238,19.029 45.046,26.309 47.589,22.929 			"/>
			<polygon fill="#C5C0BC" points="43.56,12.768 50.683,21.96 57.428,13.002 49.538,1.451 			"/>
			
				<rect x="9.25" y="44.775" transform="matrix(0.7902 -0.6128 0.6128 0.7902 -26.0897 16.267)" fill="#C5C0BC" width="2.929" height="2.93"/>
			
				<rect x="4.535" y="46.885" transform="matrix(0.7904 -0.6125 0.6125 0.7904 -28.3587 13.8058)" fill="#C5C0BC" width="2.926" height="2.928"/>
			
				<rect x="-0.242" y="48.735" transform="matrix(0.7907 -0.6123 0.6123 0.7907 -30.4781 11.257)" fill="#C5C0BC" width="2.928" height="2.927"/>
			
				<rect x="92.17" y="16.488" transform="matrix(-0.7905 0.6125 -0.6125 -0.7905 184.6724 -17.6495)" fill="#C5C0BC" width="6.37" height="12.547"/>
			
				<rect x="97.698" y="30.684" transform="matrix(0.7905 -0.6125 0.6125 0.7905 2.1847 70.5848)" fill="#C5C0BC" width="13.125" height="2.83"/>
			<polygon fill="#C5C0BC" points="83.896,38.846 80.584,34.572 78.723,36.015 84.736,50.079 93.637,43.182 87.884,35.756 			"/>
			<polygon fill="#C5C0BC" points="75.04,27.554 77.155,32.729 84.63,26.936 81.822,23.312 			"/>
			
				<rect x="83.136" y="29.557" transform="matrix(0.7905 -0.6125 0.6125 0.7905 -1.637 59.0595)" fill="#C5C0BC" width="4.73" height="4.73"/>
			<path fill="#94C749" d="M28.447,14.658l3.307,3.006c0.311,0.282,0.808,0.193,1.003-0.181l4.186-8.054
				c0.306-0.592-0.376-1.205-0.93-0.83l-7.492,5.046C28.172,13.881,28.134,14.377,28.447,14.658z"/>
			<polygon fill="#C5C0BC" points="65.208,58.084 60.641,58.013 62.588,66.398 67.462,66.958 			"/>
			<g>
				<polygon fill="#C5C0BC" points="74.145,58.221 66.809,58.106 69.104,67.146 76.629,68.013 				"/>
				<polygon fill="#C5C0BC" points="75.743,58.246 78.271,68.202 86.082,69.103 80.352,58.316 				"/>
			</g>
			<polyline fill="#C5C0BC" points="85.82,81.525 90.759,85.139 96.08,81.016 92.479,76.367 85.82,81.525 			"/>
			
				<rect x="96.855" y="73.343" transform="matrix(0.7906 -0.6123 0.6123 0.7906 -26.4073 76.4063)" fill="#C5C0BC" width="3.314" height="6.942"/>
			
				<rect x="56.669" y="35.346" transform="matrix(0.7905 -0.6125 0.6125 0.7905 -9.605 46.9577)" fill="#C5C0BC" width="14.319" height="4.341"/>
			
				<rect x="53.702" y="38.134" transform="matrix(0.7905 -0.6124 0.6124 0.7905 -12.1991 41.8535)" fill="#C5C0BC" width="2.768" height="1.254"/>
			<polygon fill="#C5C0BC" points="66.799,43.423 65.846,44.162 69.905,49.401 75.001,45.452 72.518,38.992 			"/>
			
				<rect x="60.311" y="45.886" transform="matrix(-0.6123 -0.7906 0.7906 -0.6123 60.4359 125.492)" fill="#C5C0BC" width="1.353" height="4.084"/>
			
				<rect x="61.647" y="47.612" transform="matrix(-0.6127 -0.7903 0.7903 -0.6127 61.2718 129.3314)" fill="#C5C0BC" width="1.353" height="4.082"/>
			
				<rect x="62.986" y="49.339" transform="matrix(-0.6135 -0.7897 0.7897 -0.6135 62.1482 133.1759)" fill="#C5C0BC" width="1.353" height="4.082"/>
			
				<line fill="none" stroke="#FFFFFF" stroke-width="0.9652" stroke-miterlimit="10" x1="65.356" y1="55.442" x2="78.171" y2="45.512"/>
			<path fill="#94C749" d="M63.733,79.77l2.848,7.53c0.164,0.425,0.713,0.54,1.032,0.21l4.311-4.478
				c0.301-0.313,0.193-0.831-0.203-1.003l-7.165-3.051C64.053,78.763,63.538,79.26,63.733,79.77z"/>
			
				<line fill="none" stroke="#FFFFFF" stroke-width="0.9652" stroke-miterlimit="10" x1="68.677" y1="1.018" x2="78.211" y2="-9.054"/>
			<polygon fill="#C5C0BC" points="74.88,10.226 71.761,5.627 64.006,11.292 67.331,16.077 			"/>
			<polygon fill="#C5C0BC" points="68.243,17.381 71.547,22.137 79.63,17.201 75.784,11.538 			"/>
			<polygon fill="#C5C0BC" points="105.065,46.06 104.058,44 100.892,46.453 101.332,48.952 			"/>
			<polygon fill="#C5C0BC" points="107.124,50.264 105.693,47.341 101.607,50.507 102.233,54.054 			"/>
			<polygon fill="#C5C0BC" points="102.508,55.607 103.519,61.33 110.442,57.045 107.751,51.545 			"/>
			
				<rect x="110.609" y="41.635" transform="matrix(-0.7904 0.6126 -0.6126 -0.7904 232.9651 11.8003)" fill="#C5C0BC" width="7.71" height="8.237"/>
			
				<rect x="113.805" y="50.992" transform="matrix(0.7905 -0.6125 0.6125 0.7905 -7.1182 83.7068)" fill="#C5C0BC" width="9.965" height="2.532"/>
			
				<line fill="none" stroke="#FFFFFF" stroke-width="0.9652" stroke-miterlimit="10" x1="63.187" y1="97.304" x2="91.17" y2="100.612"/>
			
				<line fill="none" stroke="#FFFFFF" stroke-width="0.9652" stroke-miterlimit="10" x1="54.073" y1="107.054" x2="66.608" y2="127.54"/>
			
				<line fill="none" stroke="#FFFFFF" stroke-width="0.9652" stroke-miterlimit="10" x1="58.939" y1="67.22" x2="86.427" y2="76.003"/>
			
				<rect x="108.197" y="66.497" transform="matrix(0.7906 -0.6124 0.6124 0.7906 -18.5264 82.4419)" fill="#C5C0BC" width="6.133" height="3.617"/>
			<polygon fill="#C5C0BC" points="119.014,61.411 121.283,67.347 126.288,63.469 122.765,59.393 			"/>
			
				<rect x="40.945" y="101.168" transform="matrix(0.7904 -0.6126 0.6126 0.7904 -53.6659 50.7955)" fill="#C5C0BC" width="12.901" height="5.307"/>
			<polygon fill="#C5C0BC" points="51.858,81.008 52.593,92.764 60.597,91.073 57.273,79.458 			"/>
			<path fill="none" stroke="#FDC63E" stroke-width="2.3165" stroke-miterlimit="10" d="M73.531,117.798l-26.15-74.742
				c-3.76-10.751-1.269-22.703,6.472-31.053l26.12-28.183"/>
			
				<line fill="none" stroke="#FDC63E" stroke-width="2.3165" stroke-miterlimit="10" x1="82.844" y1="123.754" x2="40.812" y2="-2.826"/>
			<path fill="none" stroke="#FDC63E" stroke-width="2.3165" stroke-miterlimit="10" d="M77.938-23.901L37.851,20.145
				c-9.81,10.776-22.676,18.299-36.876,21.562l-19.76,4.542"/>
			<g>
				<polygon fill="#C5C0BC" points="73.14,76.862 75.364,77.938 77.494,74.983 74.896,74.056 				"/>
				<polygon fill="#C5C0BC" points="73.963,73.723 70.743,72.574 69.239,74.981 72.264,76.439 				"/>
			</g>
			<g>
				<path fill="#FD636E" d="M69.441,34.327c-1.649-2.13-4.713-2.521-6.846-0.867c-2.132,1.651-2.518,4.716-0.867,6.845
					c0.441,0.57,0.984,1.013,1.586,1.328l-0.003,0.002l0.08,0.035c0.121,0.064,0.246,0.117,0.376,0.171l7.192,3.26
					c0.431,0.192,0.9-0.171,0.82-0.636l-1.359-7.781c-0.02-0.137-0.043-0.27-0.074-0.402l-0.011-0.091l-0.004,0.004
					C70.174,35.536,69.883,34.897,69.441,34.327z M67.543,39.839c-1.44,1.116-3.509,0.855-4.624-0.586
					c-1.113-1.437-0.852-3.506,0.589-4.623c1.433-1.11,3.507-0.851,4.619,0.586C69.243,36.656,68.977,38.728,67.543,39.839z"/>
				<path fill="#FD7F88" d="M67.496,39.875c-1.435,1.07-3.474,0.803-4.577-0.622c-1.102-1.421-0.853-3.463,0.543-4.583l-0.911-1.177
					c-2.091,1.66-2.462,4.695-0.822,6.812c0.441,0.57,0.984,1.013,1.586,1.328l-0.003,0.002l0.08,0.035
					c0.121,0.064,0.246,0.117,0.376,0.171l7.192,3.26c0.195,0.087,0.398,0.056,0.553-0.042L67.496,39.875z"/>
			</g>
		</g>
	</g>
</g>
<g>
	<defs>
		<path id="SVGID_5_" d="M22.337,103.058c0,35.508,26.157,63.166,61.663,63.166c35.509,0,62.503-27.992,62.503-63.5
			c0-20.172-12.169-37.057-19.669-43.724c-12.559-11.164-12.939-47.405-45.331-46.109c-52.957,2.119-61.794,55.533-61.794,91.04"/>
	</defs>
	<clipPath id="SVGID_4_">
		<use xlink:href="#SVGID_5_"  overflow="visible"/>
	</clipPath>
	<g id="XMLID_680_" clip-path="url(#SVGID_4_)">
		<g id="XMLID_679_">
			<g id="XMLID_624_">
				<path id="XMLID_584_" fill="#FFFFFF" d="M69.562,74.404c-4.095,0-7.841,2.299-9.694,5.948l-16.389,32.242
					c-1.492,2.934-1.318,6.437,0.456,9.208l6.071,9.487c1.526,2.384,4.16,3.826,6.991,3.826h98.382c4.584,0,8.301-3.717,8.301-8.301
					v-44.11c0-4.585-3.717-8.301-8.301-8.301H69.562z"/>
			</g>
			<g id="XMLID_640_">
				<path id="XMLID_721_" fill="#C1C1C1" d="M161.476,120.559H43.27c0.19,0.428,0.408,0.845,0.665,1.244l6.071,9.487
					c1.526,2.384,4.16,3.826,6.991,3.826h98.382c4.584,0,8.301-3.717,8.301-8.301v-6.483
					C162.955,120.479,162.217,120.559,161.476,120.559z"/>
				<path id="XMLID_716_" fill="#9EA647" d="M163.68,86.687v-3.981c0-4.585-3.717-8.301-8.301-8.301H69.562
					c-4.095,0-7.841,2.299-9.694,5.948l-3.22,6.334H163.68z"/>
			</g>
			<g id="XMLID_666_">
				<path id="XMLID_719_" fill="#E88F27" d="M163.68,86.687v-3.981c0-4.585-3.717-8.301-8.301-8.301H69.562
					c-4.095,0-7.841,2.299-9.694,5.948l-3.22,6.334H163.68z"/>
				<path id="XMLID_560_" fill="#FFFFFF" d="M138.115,74.404H85.94c-2.355,0-4.268-1.91-4.268-4.268c0-2.358,1.912-4.27,4.268-4.27
					h47.907c2.356,0,4.268,1.911,4.268,4.27V74.404z"/>
				
					<line id="XMLID_687_" fill="none" stroke="#302F2A" stroke-width="3.5155" stroke-linecap="round" stroke-miterlimit="10" x1="42.471" y1="130.631" x2="42.471" y2="144.128"/>
				<circle id="XMLID_686_" fill="#302F2A" cx="107.001" cy="137.885" r="9.249"/>
				<circle id="XMLID_685_" fill="#FFFFFF" cx="107" cy="137.885" r="4.269"/>
				<path id="XMLID_722_" opacity="0.41" fill="#302F2A" d="M94.298,135.116h25.405c-1.374-5.744-6.538-10.016-12.703-10.016
					C100.836,125.101,95.671,129.372,94.298,135.116z"/>
				<path id="XMLID_557_" fill="#92938A" d="M107,126.976c-5.424,0-9.902,4.046-10.582,9.286c-0.046,0.351,0.062,0.704,0.295,0.968
					c0.233,0.266,0.569,0.418,0.923,0.418h18.729c0.354,0,0.689-0.152,0.923-0.418c0.232-0.265,0.341-0.618,0.296-0.968
					C116.903,131.021,112.423,126.976,107,126.976z"/>
				<path id="XMLID_554_" fill="#B9D9F9" d="M135.459,124.088c0,2.816-2.283,5.099-5.1,5.099h-9.485
					c-2.816,0-5.099-2.282-5.099-5.099V87.804c0-2.816,2.282-5.099,5.099-5.099h9.485c2.816,0,5.1,2.282,5.1,5.099V124.088z"/>
				<g id="XMLID_692_">
					<g>
						<path fill="#8E8E85" d="M130.359,82.705c2.816,0,5.1,2.282,5.1,5.099v36.284c0,2.816-2.283,5.099-5.1,5.099h-9.485
							c-2.816,0-5.099-2.282-5.099-5.099V87.804c0-2.816,2.282-5.099,5.099-5.099H130.359 M130.359,81.65h-9.485
							c-3.393,0-6.153,2.761-6.153,6.153v36.284c0,3.393,2.761,6.153,6.153,6.153h9.485c3.394,0,6.154-2.761,6.154-6.153V87.804
							C136.514,84.411,133.753,81.65,130.359,81.65L130.359,81.65z"/>
					</g>
				</g>
				
					<line id="XMLID_672_" fill="none" stroke="#8F933D" stroke-width="1.0547" stroke-miterlimit="10" x1="115.775" y1="105.947" x2="135.459" y2="105.947"/>
				<path id="XMLID_643_" fill="#C1C1C1" d="M133.848,65.867H85.94c-2.355,0-4.268,1.911-4.268,4.27h56.442
					C138.115,67.778,136.204,65.867,133.848,65.867z"/>
				<g id="XMLID_720_">
					<path id="XMLID_581_" fill="#738691" d="M79.905,106.345c0,2.693-2.183,4.876-4.875,4.876H60.134
						c-2.692,0-4.875-2.183-4.875-4.876v-7.582c0-2.693,2.183-4.876,4.875-4.876H75.03c2.692,0,4.875,2.183,4.875,4.876V106.345z"/>
					<path id="XMLID_578_" fill="#95A9BA" d="M78.598,105.775c0,2.289-1.854,4.145-4.144,4.145H60.71
						c-2.288,0-4.144-1.855-4.144-4.145v-6.444c0-2.289,1.855-4.144,4.144-4.144h13.744c2.289,0,4.144,1.854,4.144,4.144V105.775z"
						/>
					<polygon id="XMLID_553_" opacity="0.29" fill="#FFFFFF" points="60.094,109.92 69.484,95.282 72.971,95.188 63.676,109.92 
											"/>
					<polygon id="XMLID_567_" opacity="0.29" fill="#FFFFFF" points="65.225,109.92 74.454,95.188 66.531,109.92 					"/>
				</g>
				<g id="XMLID_550_">
					<path id="XMLID_717_" fill="#738691" d="M109.761,106.345c0,2.693-2.182,4.876-4.875,4.876H89.989
						c-2.692,0-4.874-2.183-4.874-4.876v-7.582c0-2.693,2.182-4.876,4.874-4.876h14.896c2.693,0,4.875,2.183,4.875,4.876V106.345z"
						/>
					<path id="XMLID_681_" fill="#95A9BA" d="M108.453,105.775c0,2.289-1.855,4.145-4.145,4.145H90.565
						c-2.289,0-4.144-1.855-4.144-4.145v-6.444c0-2.289,1.854-4.144,4.144-4.144h13.743c2.289,0,4.145,1.854,4.145,4.144V105.775z"
						/>
					<polygon id="XMLID_576_" opacity="0.29" fill="#FFFFFF" points="89.95,109.92 99.341,95.282 102.826,95.188 93.532,109.92 
											"/>
					<polygon id="XMLID_573_" opacity="0.29" fill="#FFFFFF" points="95.08,109.92 104.309,95.188 96.388,109.92 					"/>
				</g>
				<g id="XMLID_665_">
					<path id="XMLID_566_" fill="#738691" d="M156.328,107.702c0,2.288-1.854,4.144-4.143,4.144h-4.047
						c-2.288,0-4.143-1.855-4.143-4.144V96.335c0-2.289,1.854-4.144,4.143-4.144h4.047c2.288,0,4.143,1.854,4.143,4.144V107.702z"/>
					<g id="XMLID_725_">
						<path id="XMLID_728_" opacity="0.41" fill="#302F2A" d="M155.379,74.404h-17.264v-4.268c0-0.148-0.007-0.293-0.021-0.438
							c-0.219-2.152-2.037-3.832-4.246-3.832H107v81.267l0,0c5.108,0,9.25-4.141,9.25-9.249c0-0.08-0.005-0.158-0.007-0.237h0.121
							c0.354,0,0.689-0.152,0.923-0.418c0.232-0.265,0.341-0.618,0.296-0.968c-0.05-0.389-0.125-0.771-0.216-1.146h2.336h35.676
							c4.584,0,8.301-3.717,8.301-8.301v-5.858v-0.625v-0.323V87.21v-0.523v-0.424v-3.558
							C163.68,78.12,159.963,74.404,155.379,74.404z"/>
					</g>
					<path id="XMLID_563_" fill="#95A9BA" d="M155.115,107.297c0,1.838-1.489,3.328-3.327,3.328h-3.252
						c-1.837,0-3.327-1.49-3.327-3.328V96.74c0-1.838,1.49-3.328,3.327-3.328h3.252c1.838,0,3.327,1.49,3.327,3.328V107.297z"/>
					
						<line id="XMLID_668_" fill="none" stroke="#DCF7F6" stroke-width="1.4752" stroke-miterlimit="10" x1="145.209" y1="102.019" x2="155.115" y2="102.019"/>
					<polygon id="XMLID_569_" opacity="0.29" fill="#FFFFFF" points="145.391,101.253 150.39,93.463 152.244,93.412 
						147.298,101.253 					"/>
					<polygon id="XMLID_564_" opacity="0.29" fill="#FFFFFF" points="148.121,101.253 153.033,93.412 148.817,101.253 					"/>
					<polygon id="XMLID_664_" opacity="0.29" fill="#FFFFFF" points="147.427,110.747 152.424,102.957 154.278,102.906 
						149.332,110.747 					"/>
					<polygon id="XMLID_663_" opacity="0.29" fill="#FFFFFF" points="150.156,110.747 155.069,102.906 150.852,110.747 					"/>
				</g>
				<g id="XMLID_667_">
					<path id="XMLID_551_" fill="#8F933D" d="M132.375,93.989c0,1.691-1.371,3.063-3.063,3.063h-7.39
						c-1.692,0-3.064-1.372-3.064-3.063v-3.597c0-1.691,1.372-3.063,3.064-3.063h7.39c1.692,0,3.063,1.372,3.063,3.063V93.989z"/>
					<path id="XMLID_548_" fill="#95A9BA" d="M131.268,93.568c0,1.295-1.051,2.345-2.347,2.345h-6.607
						c-1.296,0-2.347-1.05-2.347-2.345v-2.754c0-1.296,1.051-2.345,2.347-2.345h6.607c1.296,0,2.347,1.049,2.347,2.345V93.568z"/>
					<polygon id="XMLID_724_" opacity="0.29" fill="#FFFFFF" points="122.135,95.913 126.868,88.534 128.626,88.487 123.939,95.913 
											"/>
					<polygon id="XMLID_723_" opacity="0.29" fill="#FFFFFF" points="124.722,95.913 129.374,88.487 125.38,95.913 					"/>
				</g>
				<path id="XMLID_587_" fill="#C1C1C1" d="M35.854,130.631c0-2.478,2.008-4.484,4.485-4.484h29.427v8.97H40.34
					C37.862,135.116,35.854,133.107,35.854,130.631z"/>
			</g>
		</g>
	</g>
	<g clip-path="url(#SVGID_4_)">
		<ellipse fill="#DCDDDE" cx="90.967" cy="145.662" rx="55.536" ry="2.838"/>
	</g>
</g>
</svg>
