<?xml version="1.0" encoding="utf-8"?>
<!-- Generator: Adobe Illustrator 16.0.0, SVG Export Plug-In . SVG Version: 6.00 Build 0)  -->
<!DOCTYPE svg PUBLIC "-//W3C//DTD SVG 1.1//EN" "http://www.w3.org/Graphics/SVG/1.1/DTD/svg11.dtd">
<svg version="1.1" id="Capa_1" xmlns="http://www.w3.org/2000/svg" xmlns:xlink="http://www.w3.org/1999/xlink" x="0px" y="0px"
	 width="168px" height="181px" viewBox="0 0 168 181" enable-background="new 0 0 168 181" xml:space="preserve">
<g>
	<path fill="#6F89D1" stroke="#F49351" stroke-width="4" stroke-miterlimit="10" d="M19.709,103.931
		c0,35.508,28.784,64.291,64.29,64.291c35.509,0,64.292-28.783,64.292-64.291c0-35.507-28.783-64.291-64.292-64.291
		C48.493,39.64,19.709,68.424,19.709,103.931"/>
	<g>
		<defs>
			<path id="SVGID_1_" d="M22.337,103.058c0,35.508,26.157,63.166,61.663,63.166c35.509,0,62.503-27.992,62.503-63.5
				c0-35.507,10-92.833-65-89.833c-52.957,2.119-61.794,55.533-61.794,91.04"/>
		</defs>
		<clipPath id="SVGID_2_">
			<use xlink:href="#SVGID_1_"  overflow="visible"/>
		</clipPath>
		<g clip-path="url(#SVGID_2_)">
			<path fill="#7F4932" d="M33.704,75.834c0,5.925,4.927,22.579,16.318,22.579c8.797,0,36.636,0.601,37.86-22.564L33.704,75.834z"/>
			<rect x="58.014" y="94.455" fill="#FEC79F" width="6.994" height="15.349"/>
			<path fill="#FEC79F" d="M89.969,62.105c-0.36-0.055-0.718-0.062-1.07-0.034c-0.577-22.735-12.615-30.677-27.388-30.677
				c-14.775,0-26.815,7.729-27.389,30.677c-0.353-0.027-0.71-0.021-1.069,0.034c-3.084,0.469-5.116,3.925-4.541,7.72
				c0.577,3.796,3.544,6.492,6.627,6.023c0.082-0.012,0.161-0.036,0.242-0.052c3.521,14.714,13.886,20.396,26.13,20.396
				c12.243,0,22.609-5.682,26.129-20.396c0.08,0.016,0.161,0.04,0.243,0.052c3.082,0.469,6.049-2.228,6.626-6.023
				C95.083,66.03,93.053,62.574,89.969,62.105"/>
			<path fill="#65AAA0" d="M45.065,165.559c5.198,1.534,10.699,2.364,16.396,2.364c5.652,0,11.114-0.818,16.279-2.331l-1.907-23.212
				l3.632-33.694c0-2.979-8.038-5.393-17.954-5.393s-17.954,2.413-17.954,5.393l3.632,34.379L45.065,165.559z"/>
			<polygon fill="#A02A30" points="61.511,103.293 61.511,103.293 59.692,106.146 60.258,108.651 62.763,108.651 63.328,106.146 			
				"/>
			<polygon fill="#A02A30" points="66.915,155.526 62.761,108.648 60.261,108.648 56.106,155.526 61.51,159.107 			"/>
			<path fill="#EDEDED" d="M43.181,164.967c5.232,1.742,10.793,2.762,16.57,2.929v-34.019l-2.787-30.433
				c-8.493,0.569-14.805,2.699-14.805,5.241l5.03,34.715C47.189,143.4,44.485,152.611,43.181,164.967"/>
			<path fill="#EDEDED" d="M81.438,168.766c-1.251-12.379-5.492-25.365-5.492-25.365l4.916-34.715c0-2.542-6.313-4.672-14.805-5.241
				l-2.788,30.435v34.016c5.785-0.18,9.539,3.628,14.774,1.871"/>
			<polygon fill="#E0DFE5" points="66.058,103.293 63.271,133.879 69.243,118.387 67.505,116.867 69.243,116.379 67.777,103.444 			
				"/>
			<polygon fill="#E0DFE5" points="56.964,103.293 59.751,133.879 53.778,118.387 55.517,116.867 53.778,116.379 55.244,103.444 			
				"/>
			<path fill="#232323" d="M79.424,64.432c-0.297,0.595-0.938,0.831-1.193,0.904c-0.549-0.918-1.342-1.498-2.228-1.498
				c-1.66,0-3.004,2.024-3.004,4.523c0,2.5,1.344,4.524,3.004,4.524c1.658,0,3.003-2.024,3.003-4.524
				c0-0.865-0.163-1.671-0.443-2.358C79.333,65.705,79.424,64.432,79.424,64.432"/>
			<path fill="#232323" d="M47.019,63.838c-0.877,0-1.665,0.57-2.214,1.474c-0.291-0.095-0.848-0.341-1.118-0.88
				c0,0,0.093,1.176,0.79,1.527c-0.291,0.697-0.462,1.519-0.462,2.402c0,2.5,1.346,4.524,3.004,4.524
				c1.66,0,3.005-2.024,3.005-4.524C50.023,65.862,48.679,63.838,47.019,63.838"/>
			<path fill="#232323" d="M42.752,60.116c0,0,2.643-4.146,6.404-1.943c0,0,1.506-1.333-0.425-2.129S44.912,56.142,42.752,60.116"/>
			<path fill="#232323" d="M80.27,60.116c0,0-2.644-4.146-6.404-1.943c0,0-1.507-1.333,0.425-2.129
				C76.22,55.248,78.109,56.142,80.27,60.116"/>
			<path fill="#473A3D" d="M53.599,83.185c-0.027,0.186-0.04,0.371-0.04,0.562c0,3.117,3.561,5.647,7.952,5.647
				s7.953-2.53,7.953-5.647c0-0.19-0.015-0.376-0.041-0.562H53.599z"/>
			<path fill="#FFFFFF" d="M53.599,83.185c-0.027,0.186-0.04,0.371-0.04,0.562c0,0.219,0.021,0.433,0.055,0.644
				c1.916,0.381,4.808,0.624,8.047,0.624c3.072,0,5.824-0.22,7.735-0.567c0.04-0.229,0.068-0.464,0.068-0.7
				c0-0.19-0.015-0.376-0.041-0.562H53.599z"/>
			<polygon fill="#BAD6F5" points="65.497,101.039 61.51,103.293 63.759,106.822 66.2,103.479 			"/>
			<polygon fill="#BAD6F5" points="57.524,101.039 61.511,103.293 59.263,106.822 56.82,103.479 			"/>
			<path fill="#FFFFFF" d="M78.143,66.386c0.339,0.827,0.156,1.687-0.407,1.917c-0.566,0.232-1.299-0.251-1.638-1.077
				c-0.34-0.828-0.157-1.688,0.407-1.919C77.07,65.075,77.804,65.558,78.143,66.386"/>
			<path fill="#FFFFFF" d="M49.16,66.386c0.339,0.827,0.156,1.687-0.408,1.917c-0.564,0.232-1.298-0.251-1.639-1.077
				c-0.339-0.828-0.156-1.688,0.409-1.919C48.087,65.075,48.82,65.558,49.16,66.386"/>
			<path fill="#7F4932" d="M95.47,60.582c2.25,0.076,3.038-1.313,3.038-1.313c-0.301,2.622-3.568,4.624-7.803,4.953
				c-7.986,0.618-20.704-1.294-29.592-7.71c-7.244-5.229-11.052-10.195-11.052-10.195s-10.922,5.4-15.086,15.754
				c0,0,5.213,3.001,1.988,9.115c0,0,0.187-6.376-2.803-9.115l-2.034,0.29c0,0-1.84-25.051,12.618-27.974
				c-0.749-2.993,13.298-12.074,33.518-3.601c16.382,6.864,13.83,26.907,13.83,26.907s3.64,1.763,4.733,1.025
				C96.826,58.72,96.8,60.114,95.47,60.582"/>
			<path fill="#7F4932" d="M49.865,98.413c0,0-17.171,18.012,1.487,29.697l3.286-6.112c0,0-3.465-3.31-3.979-8.127
				c0,0,1.057,4.081,3.979,6.598l-0.315-6.598c0,0-4.495-8.46,1.541-15.455L49.865,98.413z"/>
			<path fill="#BAD6F5" d="M55.917,99.201h-6.676c-0.342,0-0.618-0.278-0.618-0.618c0-0.343,0.276-0.62,0.618-0.62h6.676
				c0.344,0,0.62,0.277,0.62,0.62C56.537,98.923,56.261,99.201,55.917,99.201"/>
			<path fill="#E0DFE5" d="M83.886,163.408c2.087-0.879,4.109-1.876,6.063-2.983c0.03-5.378-0.025-13.229-0.511-17.665
				c-0.804-7.342-2.726-24.761-8.616-34.208l-2.778,19.314c0,0,4.031,10.839,4.756,15.904
				C83.289,147.2,83.684,157.262,83.886,163.408"/>
			<path fill="#E0DFE5" d="M39.094,163.434c0.204-6.143,0.597-16.228,1.088-19.663c0.725-5.066,4.756-15.905,4.756-15.905
				l-2.778-19.313c-5.893,9.446-7.814,26.866-8.617,34.207c-0.486,4.446-0.54,12.323-0.511,17.699
				C34.985,161.563,37.008,162.558,39.094,163.434"/>
		</g>
		<g clip-path="url(#SVGID_2_)">
			<g>
				<path fill="#332B26" d="M106.393,97.359c0,0-1.812,3.859-5.085,2.782C101.308,100.142,106.642,104.405,106.393,97.359"/>
				<rect x="106.673" y="96.676" fill="#DDAF90" width="6.604" height="14.486"/>
				<path fill="#DDAF90" d="M136.838,66.14c-0.341-0.048-0.679-0.058-1.012-0.031C135.28,44.649,123.92,37.15,109.976,37.15
					c-13.948,0-25.313,7.298-25.854,28.958c-0.332-0.026-0.669-0.017-1.01,0.031c-2.911,0.444-4.83,3.705-4.286,7.286
					c0.543,3.583,3.345,6.129,6.254,5.688c0.079-0.012,0.153-0.034,0.229-0.05c3.322,13.89,13.107,19.255,24.667,19.255
					c11.557,0,21.343-5.365,24.662-19.255c0.077,0.016,0.152,0.038,0.229,0.05c2.911,0.441,5.709-2.104,6.254-5.688
					C141.665,69.845,139.746,66.584,136.838,66.14"/>
				<path fill="#65AAA0" d="M109.976,105.019c-9.359,0-16.949,2.279-16.949,5.091l3.431,32.45l-2.317,19.35h31.42l-2.066-19.994
					l3.428-31.806C126.921,107.298,119.334,105.019,109.976,105.019"/>
				<path fill="#E0DFE5" d="M112.635,166.128h-5.321c-0.38,0-0.688-0.308-0.688-0.688v-3.954c0-0.378,0.309-0.688,0.688-0.688h5.321
					c0.38,0,0.688,0.311,0.688,0.688v3.954C113.323,165.82,113.015,166.128,112.635,166.128"/>
				<polygon fill="#A02A30" points="109.976,105.019 109.976,105.019 108.257,107.713 108.791,110.073 111.157,110.073 
					111.691,107.713 				"/>
				<polygon fill="#A02A30" points="115.077,154.323 111.153,110.073 108.796,110.073 104.873,154.323 109.976,157.703 				"/>
				<path fill="#FEC79F" d="M109.976,161.909H94.14l9.457,96.045h4.905c0,0-1.604-72.438,1.474-72.438
					c3.075,0,1.473,72.438,1.473,72.438h5.507l8.604-96.045H109.976z"/>
				<rect x="94.141" y="159.175" fill="#5069A3" width="31.42" height="58.146"/>
				<path fill="#EDEDED" d="M108.313,133.889l-2.632-28.727c-8.015,0.537-13.974,2.548-13.974,4.947l4.749,32.769
					c0,0-3.551,12.082-4.298,26.87c-0.451,8.942-0.451,41.736-0.451,41.736h16.605V133.889z"/>
				<path fill="#EDEDED" d="M114.266,105.162l-2.629,28.727v77.596h16.603c0,0,0-32.288-0.477-42.072
					c-0.719-14.705-4.162-26.534-4.162-26.534l4.639-32.769C128.239,107.71,122.283,105.699,114.266,105.162"/>
				<polygon fill="#E0DFE5" points="114.266,105.019 111.637,133.889 117.273,119.267 115.633,117.832 117.273,117.371 
					115.889,105.161 				"/>
				<polygon fill="#E0DFE5" points="105.683,105.019 108.313,133.889 102.676,119.267 104.315,117.832 102.676,117.371 
					104.06,105.161 				"/>
				<path fill="#E0DFE5" d="M91.708,109.981c-5.561,8.918-14.787,25.558-14.787,32.529c0,6.97,5.377,21.529,5.377,21.529
					l4.642-6.337c0,0-4.482-10.863-3.799-15.648c0.684-4.781,11.19-13.842,11.19-13.842L91.708,109.981z"/>
				<path fill="#DDAF90" d="M86.555,158.229c0,0,4.043,0.272,3.069,1.731c0,0,2.535,1.026,2.535,2.562
					c0,1.54-2.085,5.74-4.442,4.989c-3.303-1.053-4.109-5.257-4.109-5.257L86.555,158.229z"/>
				<path fill="#E0DFE5" d="M128.234,109.981c5.562,8.918,14.787,25.558,14.787,32.529c0,6.97-5.378,21.529-5.378,21.529
					l-4.642-6.337c0,0,4.485-10.863,3.802-15.648c-0.685-4.781-11.19-13.842-11.19-13.842L128.234,109.981z"/>
				<path fill="#DDAF90" d="M133.388,158.229c0,0-4.041,0.272-3.066,1.731c0,0-2.538,1.026-2.538,2.562
					c0,1.54,2.084,5.74,4.439,4.989c3.304-1.053,4.113-5.257,4.113-5.257L133.388,158.229z"/>
				<path fill="#232323" d="M126.885,68.337c-0.282,0.561-0.888,0.783-1.129,0.854c-0.518-0.869-1.266-1.417-2.103-1.417
					c-1.567,0-2.837,1.914-2.837,4.271c0,2.359,1.27,4.272,2.837,4.272c1.566,0,2.835-1.913,2.835-4.272
					c0-0.815-0.154-1.578-0.419-2.228C126.796,69.539,126.885,68.337,126.885,68.337"/>
				<path fill="#232323" d="M96.296,67.774c-0.83,0-1.572,0.54-2.092,1.395c-0.272-0.09-0.801-0.323-1.054-0.832
					c0,0,0.088,1.109,0.746,1.441c-0.276,0.657-0.437,1.434-0.437,2.268c0,2.359,1.271,4.272,2.836,4.272
					c1.565,0,2.836-1.913,2.836-4.272C99.132,69.688,97.861,67.774,96.296,67.774"/>
				<path fill="#232323" d="M92.268,64.263c0,0,2.495-3.913,6.044-1.832c0,0,1.422-1.261-0.397-2.012
					C96.09,59.668,94.308,60.511,92.268,64.263"/>
				<path fill="#232323" d="M127.68,64.263c0,0-2.494-3.913-6.045-1.832c0,0-1.42-1.261,0.401-2.012
					C123.86,59.668,125.642,60.511,127.68,64.263"/>
				<path fill="#473A3D" d="M102.507,86.037c-0.025,0.176-0.04,0.353-0.04,0.529c0,2.945,3.362,5.332,7.507,5.332
					c4.146,0,7.506-2.387,7.506-5.332c0-0.177-0.014-0.354-0.037-0.529H102.507z"/>
				<path fill="#FFFFFF" d="M102.507,86.037c-0.025,0.176-0.04,0.353-0.04,0.529c0,0.206,0.021,0.409,0.053,0.609
					c1.808,0.359,4.539,0.588,7.596,0.588c2.899,0,5.498-0.206,7.302-0.536c0.039-0.216,0.063-0.435,0.063-0.661
					c0-0.177-0.014-0.354-0.037-0.529H102.507z"/>
				<polygon fill="#BAD6F5" points="113.737,102.892 109.976,105.019 112.096,108.35 114.401,105.192 				"/>
				<polygon fill="#BAD6F5" points="106.212,102.892 109.974,105.019 107.853,108.35 105.548,105.192 				"/>
				<path fill="#FFFFFF" d="M125.674,70.181c0.321,0.781,0.148,1.592-0.384,1.811c-0.534,0.22-1.226-0.236-1.547-1.017
					c-0.32-0.783-0.148-1.594,0.385-1.812C124.662,68.943,125.354,69.4,125.674,70.181"/>
				<path fill="#FFFFFF" d="M98.317,70.181c0.32,0.781,0.148,1.592-0.388,1.811c-0.531,0.22-1.225-0.236-1.546-1.017
					c-0.32-0.783-0.146-1.594,0.387-1.812C97.304,68.943,97.995,69.4,98.317,70.181"/>
				<path fill="#332B26" d="M139.891,44.177c-2.837-4.786-10.184-10.021-18.492-12.802h0.001c0,0,4.045-4.582-5.705-7.989
					c-8.525-2.979-14.268-2.813-17.302-1.783c-2.072-1.413-5.606-4.283-3.224-6.087c0,0-5.288,1.848-0.484,5.919
					c-2.536-0.857-5.745-2.65-3.54-5.919c0,0-10.069,8.762,0.018,10.591c-1.721,0.354-3.93,0.454-6.243-0.396
					c0,0,2.573,2.479,7.836,1.215c-1.366,2.523-1.706,5.491,1.288,7.685c0,0,0.002,0.002,0.002,0.004
					c-6.857,4.181-12.324,10.005-13.002,14.144c-1.176,7.166,2.069,17.383,2.069,17.383l1.01-0.031c0,0-1.437,21.655,4.556,32.21
					c0,0-2.938-18.962-0.472-29.209c0,0,4.062-13.187,10.925-18.94c0,0,26.664-0.885,32.304,18.94c0,0,1.879,13.808,0,29.209
					c0,0,4.392-8.28,4.392-32.21l1.804,0.237C137.63,66.346,144.004,51.106,139.891,44.177"/>
			</g>
		</g>
	</g>
</g>
</svg>
