<?xml version="1.0" encoding="utf-8"?>
<!-- Generator: Adobe Illustrator 16.0.0, SVG Export Plug-In . SVG Version: 6.00 Build 0)  -->
<!DOCTYPE svg PUBLIC "-//W3C//DTD SVG 1.1//EN" "http://www.w3.org/Graphics/SVG/1.1/DTD/svg11.dtd">
<svg version="1.1" id="Capa_1" xmlns="http://www.w3.org/2000/svg" xmlns:xlink="http://www.w3.org/1999/xlink" x="0px" y="0px"
	 width="168px" height="181px" viewBox="0 0 168 181" enable-background="new 0 0 168 181" xml:space="preserve">
<g>
	<path fill="#6F89D1" stroke="#F49351" stroke-width="4" stroke-miterlimit="10" d="M19.709,103.931
		c0,35.508,28.784,64.291,64.29,64.291c35.509,0,64.292-28.783,64.292-64.291c0-35.507-28.783-64.291-64.292-64.291
		C48.493,39.64,19.709,68.424,19.709,103.931"/>
	<g>
		<defs>
			<path id="SVGID_7_" d="M22.337,103.058c0,35.508,26.157,63.166,61.663,63.166c35.509,0,62.503-27.992,62.503-63.5
				c0-35.507-15.479-105.338-65-89.833C4.5,37,11,52.437,19.709,103.931"/>
		</defs>
		<clipPath id="SVGID_2_">
			<use xlink:href="#SVGID_7_"  overflow="visible"/>
		</clipPath>
		<g clip-path="url(#SVGID_2_)">
			<g>
				<path fill="#FFCB00" d="M50.557,59.261l-26.513,7.678c-2.373,0.688-3.604,3.3-2.626,5.567l21.771,50.449
					c0.819,1.899,2.924,2.892,4.909,2.315l81.783-23.685c1.986-0.575,3.234-2.538,2.912-4.581l-7.543-46.733
					c-0.257-1.63-1.885-2.664-3.469-2.205l-62.327,18.05l-3.964-5.58C54.203,59.241,52.313,58.752,50.557,59.261z"/>
				<path fill="#FFBA00" d="M50.923,60.524l-26.514,7.678c-2.373,0.688-3.604,3.301-2.626,5.567l20.299,50.876l92.551-26.804
					l-9.017-46.309c-0.256-1.628-1.884-2.662-3.468-2.204L59.82,67.381L55.857,61.8C54.568,60.505,52.677,60.016,50.923,60.524z"/>
				<polygon fill="#E79A15" points="25.58,83.286 42.082,124.646 134.633,97.842 126.129,54.167 				"/>
			</g>
			<g>
				<g>
					
						<rect x="27.697" y="35.876" transform="matrix(0.8962 -0.4436 0.4436 0.8962 -24.4055 30.4183)" fill="#EFEEEE" width="50.215" height="62.981"/>
					<polygon opacity="0.42" fill="#D3E2EC" points="61.334,28.004 60.646,28.345 69.503,89.602 82.731,87.688 89.276,84.449 					
						"/>
					
						<rect x="25.483" y="43.194" transform="matrix(0.8962 -0.4436 0.4436 0.8962 -15.4642 23.0466)" fill="#D1D2D3" width="32.074" height="2.756"/>
					
						<rect x="41.952" y="76.461" transform="matrix(0.8962 -0.4437 0.4437 0.8962 -28.5158 33.8092)" fill="#D1D2D3" width="32.074" height="2.757"/>
					
						<rect x="44.411" y="81.429" transform="matrix(0.8962 -0.4437 0.4437 0.8962 -30.4633 35.4134)" fill="#D1D2D3" width="32.073" height="2.756"/>
					
						<rect x="46.869" y="86.395" transform="matrix(0.8962 -0.4437 0.4437 0.8962 -32.4119 37.0212)" fill="#D1D2D3" width="32.075" height="2.757"/>
					
						<rect x="35.041" y="46.987" transform="matrix(0.8962 -0.4436 0.4436 0.8962 -16.6802 24.0461)" fill="#D1D2D3" width="16.032" height="1.377"/>
					<g>
						
							<rect x="28.163" y="57.777" transform="matrix(0.8962 -0.4437 0.4437 0.8962 -22.0946 22.5002)" fill="#D1D2D3" width="17.743" height="1.377"/>
						
							<rect x="29.977" y="61.439" transform="matrix(0.8962 -0.4437 0.4437 0.8962 -23.5313 23.6849)" fill="#D1D2D3" width="17.743" height="1.378"/>
						
							<rect x="31.79" y="65.102" transform="matrix(0.8962 -0.4437 0.4437 0.8962 -24.968 24.8697)" fill="#D1D2D3" width="17.743" height="1.377"/>
						
							<rect x="33.602" y="68.765" transform="matrix(0.8962 -0.4437 0.4437 0.8962 -26.405 26.0541)" fill="#D1D2D3" width="17.743" height="1.377"/>
						
							<rect x="35.416" y="72.427" transform="matrix(0.8962 -0.4436 0.4436 0.8962 -27.8395 27.2353)" fill="#D1D2D3" width="17.743" height="1.377"/>
						
							<rect x="37.229" y="76.09" transform="matrix(0.8962 -0.4437 0.4437 0.8962 -29.2787 28.4237)" fill="#D1D2D3" width="17.743" height="1.378"/>
					</g>
					<g>
						
							<rect x="47.353" y="48.276" transform="matrix(0.8962 -0.4436 0.4436 0.8962 -15.887 30.0261)" fill="#D1D2D3" width="17.744" height="1.378"/>
						
							<rect x="49.166" y="51.939" transform="matrix(0.8962 -0.4437 0.4437 0.8962 -17.3255 31.2164)" fill="#D1D2D3" width="17.744" height="1.377"/>
						
							<rect x="50.98" y="55.602" transform="matrix(0.8962 -0.4436 0.4436 0.8962 -18.7596 32.3917)" fill="#D1D2D3" width="17.744" height="1.377"/>
						
							<rect x="52.792" y="59.265" transform="matrix(0.8962 -0.4436 0.4436 0.8962 -20.1975 33.5799)" fill="#D1D2D3" width="17.744" height="1.377"/>
						
							<rect x="54.606" y="62.928" transform="matrix(0.8962 -0.4436 0.4436 0.8962 -21.6343 34.7648)" fill="#D1D2D3" width="17.744" height="1.377"/>
						
							<rect x="56.419" y="66.591" transform="matrix(0.8962 -0.4436 0.4436 0.8962 -23.071 35.9493)" fill="#D1D2D3" width="17.744" height="1.377"/>
					</g>
				</g>
				<g>
					
						<rect x="67.197" y="23.004" transform="matrix(0.9897 -0.1431 0.1431 0.9897 -6.848 13.769)" fill="#EFEEEE" width="50.216" height="62.982"/>
					
						<rect x="72.628" y="27.944" transform="matrix(0.9897 -0.1431 0.1431 0.9897 -3.2835 12.9898)" fill="#D1D2D3" width="32.074" height="2.757"/>
					
						<rect x="77.941" y="64.684" transform="matrix(0.9897 -0.1431 0.1431 0.9897 -8.4868 14.129)" fill="#D1D2D3" width="32.072" height="2.756"/>
					
						<rect x="78.733" y="70.17" transform="matrix(0.9897 -0.1431 0.1431 0.9897 -9.2615 14.2949)" fill="#D1D2D3" width="32.074" height="2.756"/>
					
						<rect x="79.527" y="75.655" transform="matrix(0.9897 -0.1431 0.1431 0.9897 -10.0399 14.4681)" fill="#D1D2D3" width="32.074" height="2.756"/>
					
						<rect x="81.145" y="32.061" transform="matrix(0.9897 -0.1431 0.1431 0.9897 -3.7698 13.1001)" fill="#D1D2D3" width="16.032" height="1.377"/>
					<g>
						
							<rect x="71.212" y="40.444" transform="matrix(0.9897 -0.1431 0.1431 0.9897 -5.062 11.8834)" fill="#D1D2D3" width="17.743" height="1.378"/>
						
							<rect x="71.797" y="44.49" transform="matrix(0.9897 -0.1431 0.1431 0.9897 -5.6351 12.0094)" fill="#D1D2D3" width="17.742" height="1.377"/>
						
							<rect x="72.381" y="48.535" transform="matrix(0.9897 -0.1431 0.1431 0.9897 -6.2077 12.134)" fill="#D1D2D3" width="17.743" height="1.377"/>
						
							<rect x="72.966" y="52.58" transform="matrix(0.9897 -0.1431 0.1431 0.9897 -6.7802 12.2587)" fill="#D1D2D3" width="17.744" height="1.377"/>
						
							<rect x="73.552" y="56.625" transform="matrix(0.9897 -0.1431 0.1431 0.9897 -7.353 12.3841)" fill="#D1D2D3" width="17.744" height="1.377"/>
						
							<rect x="74.137" y="60.67" transform="matrix(0.9897 -0.1431 0.1431 0.9897 -7.9261 12.5101)" fill="#D1D2D3" width="17.743" height="1.378"/>
					</g>
					<g>
						
							<rect x="92.404" y="37.381" transform="matrix(0.9897 -0.1431 0.1431 0.9897 -4.4053 14.8837)" fill="#D1D2D3" width="17.744" height="1.377"/>
						
							<rect x="92.99" y="41.425" transform="matrix(0.9897 -0.1432 0.1432 0.9897 -4.9797 15.0157)" fill="#D1D2D3" width="17.743" height="1.377"/>
						
							<rect x="93.574" y="45.47" transform="matrix(0.9897 -0.1431 0.1431 0.9897 -5.5525 15.1403)" fill="#D1D2D3" width="17.744" height="1.378"/>
						
							<rect x="94.159" y="49.515" transform="matrix(0.9897 -0.1431 0.1431 0.9897 -6.1239 15.2605)" fill="#D1D2D3" width="17.743" height="1.377"/>
						
							<rect x="94.744" y="53.561" transform="matrix(0.9897 -0.1431 0.1431 0.9897 -6.6968 15.3858)" fill="#D1D2D3" width="17.743" height="1.377"/>
						
							<rect x="95.329" y="57.605" transform="matrix(0.9897 -0.1431 0.1431 0.9897 -7.2692 15.5103)" fill="#D1D2D3" width="17.744" height="1.378"/>
					</g>
				</g>
			</g>
			<path fill="#FFFF5F" d="M140.5,124.552l-89.282,25.857c-2.168,0.628-4.465-0.456-5.359-2.528L22.091,92.807
				c-1.069-2.476,0.276-5.328,2.866-6.078l103.708-30.035c2.59-0.75,5.251,0.942,5.672,3.605l9.342,59.252
				C144.03,121.78,142.669,123.924,140.5,124.552z"/>
			<path fill="#FFD600" d="M140.866,125.815l-89.282,25.857c-2.169,0.628-4.465-0.456-5.36-2.528L22.456,94.07
				c-1.068-2.477,0.277-5.328,2.867-6.078l103.708-30.035c2.59-0.75,5.251,0.941,5.671,3.605l9.343,59.252
				C144.396,123.044,143.034,125.188,140.866,125.815z"/>
		</g>
		<g clip-path="url(#SVGID_2_)">
			<circle opacity="0.34" fill="#FFFAD2" cx="83.468" cy="72.78" r="27.527"/>
			
				<rect x="105.711" y="95.829" transform="matrix(0.7425 0.6699 -0.6699 0.7425 95.6227 -50.4594)" fill="#00628D" width="15.461" height="6.626"/>
			
				<rect x="110.175" y="95.829" transform="matrix(0.7425 0.6698 -0.6698 0.7425 95.6215 -50.4592)" fill="#2190C7" width="6.533" height="6.626"/>
			<g>
				<path fill="#2190C7" d="M114.592,111.957c-1.396-1.26-1.508-3.412-0.247-4.809l7.653-8.484c1.26-1.396,3.413-1.507,4.809-0.248
					l28.016,25.488l-12.394,13.38L114.592,111.957z"/>
				<path fill="#00628D" d="M147.277,141.658l-4.849-4.374l12.394-13.38l4.67,4.213c1.397,1.26,1.508,3.412,0.248,4.809
					l-7.654,8.485C150.826,142.807,148.674,142.917,147.277,141.658z"/>
			</g>
			<g>
				<path fill="#5EC4E8" d="M121.998,98.664l-3.435,3.808l30.49,27.66l5.769-6.228l-28.016-25.488
					C125.411,97.157,123.258,97.268,121.998,98.664z"/>
				<path fill="#2190C7" d="M156.316,136.721l3.424-3.795c1.26-1.396,1.149-3.549-0.248-4.809l-4.67-4.213l-5.769,6.228
					L156.316,136.721z"/>
			</g>
			<g>
				<path fill="#2190C7" d="M49.186,74.544c0.975,18.934,17.112,33.492,36.047,32.519c18.933-0.975,33.491-17.113,32.518-36.047
					c-0.975-18.934-17.112-33.492-36.046-32.518C62.771,39.472,48.211,55.61,49.186,74.544z M110.958,71.365
					c0.781,15.183-10.893,28.124-26.076,28.905C69.7,101.052,56.759,89.377,55.978,74.194S66.871,46.07,82.054,45.29
					C97.235,44.508,110.177,56.183,110.958,71.365z"/>
			</g>
			<path fill="none" stroke="#C4FFFF" stroke-width="5.3548" stroke-linecap="round" stroke-miterlimit="10" d="M62.033,71.31
				c-0.622-8.689,9.631-22.996,24.909-20.992"/>
			<g>
				<path opacity="0.12" fill="#00A3FF" d="M98.344,49.626c6.857,20.691-4.532,40.557-21.699,49.829
					c2.623,0.67,5.391,0.962,8.237,0.815c13.238-0.682,23.806-10.607,25.779-23.202c0.29-1.851,0.397-3.758,0.297-5.703
					C110.484,62.164,105.541,54.259,98.344,49.626z"/>
				<path fill="#00628D" d="M110.958,71.365c0.101,1.945-0.007,3.853-0.297,5.703c-1.974,12.595-12.541,22.521-25.779,23.202
					c-2.847,0.146-5.614-0.146-8.237-0.815c-2.89,1.561-5.941,2.821-9.098,3.735c5.266,2.763,11.315,4.199,17.686,3.872
					c18.933-0.975,33.491-17.113,32.518-36.047c-0.757-14.702-10.659-26.762-23.912-30.964c1.965,3.188,3.451,6.39,4.506,9.574
					C105.541,54.259,110.484,62.164,110.958,71.365z"/>
			</g>
			<path fill="#5EC4E8" d="M53.668,74.285C54.516,90.742,68.542,103.396,85,102.55c16.457-0.847,29.111-14.874,28.264-31.331
				c-0.847-16.457-14.874-29.111-31.33-28.265C65.477,43.801,52.821,57.828,53.668,74.285z M110.957,71.337
				c0.781,15.184-10.894,28.124-26.076,28.905S56.757,89.349,55.976,74.167c-0.78-15.183,10.894-28.124,26.076-28.905
				S110.176,56.154,110.957,71.337z"/>
		</g>
	</g>
</g>
</svg>
