<?xml version="1.0" encoding="utf-8"?>
<!-- Generator: Adobe Illustrator 16.0.0, SVG Export Plug-In . SVG Version: 6.00 Build 0)  -->
<!DOCTYPE svg PUBLIC "-//W3C//DTD SVG 1.1//EN" "http://www.w3.org/Graphics/SVG/1.1/DTD/svg11.dtd">
<svg version="1.1" id="Layer_1" xmlns="http://www.w3.org/2000/svg" xmlns:xlink="http://www.w3.org/1999/xlink" x="0px" y="0px"
	 width="13.002px" height="13px" viewBox="0 0 13.002 13" enable-background="new 0 0 13.002 13" xml:space="preserve">
<g>
	<path fill="#FFFFFF" d="M8.583,5.996c-0.099,0-0.132,0.02-0.105,0.132c0.06,0.312,0.04,0.637-0.046,0.941
		C8.146,8.058,7.118,8.681,6.09,8.482c-1.007-0.199-1.71-1.18-1.591-2.201c0.034-0.285,0.027-0.272-0.271-0.299
		C4.015,5.976,3.955,6.029,3.955,6.254C3.968,7.05,3.962,7.853,3.962,8.648c0,0.305,0.086,0.385,0.391,0.385
		c0.716,0,1.432,0,2.142,0c0.716,0,1.432,0,2.148,0c0.305,0,0.391-0.08,0.391-0.385c0-0.743,0-1.492,0-2.228
		C9.034,5.95,9.034,5.962,8.583,5.996z"/>
	<path fill="#FFFFFF" d="M6.481,7.773C7.17,7.786,7.761,7.203,7.767,6.5c0.007-0.683-0.576-1.273-1.266-1.273
		c-0.683,0-1.26,0.57-1.279,1.26C5.208,7.169,5.792,7.759,6.481,7.773z"/>
	<path fill="#FFFFFF" d="M6.495,0.467c-3.328,0-6.027,2.698-6.027,6.033s2.699,6.033,6.027,6.033c3.334,0,6.04-2.698,6.04-6.033
		S9.829,0.467,6.495,0.467z M9.783,8.913c0,0.563-0.306,0.869-0.862,0.869c-1.625,0-3.235,0-4.859,0
		c-0.544,0-0.849-0.305-0.849-0.855c0-0.809,0-1.624,0-2.426c0-0.803,0-1.604,0-2.4c0-0.577,0.299-0.875,0.869-0.875
		c1.611,0,3.229,0,4.84,0c0.557,0,0.862,0.298,0.862,0.861C9.783,5.697,9.783,7.302,9.783,8.913z"/>
	<path fill="#FFFFFF" d="M8.384,3.96c-0.636,0-0.636,0-0.636,0.643c0,0.65,0,0.65,0.649,0.65c0.637,0,0.637,0,0.637-0.637
		C9.034,3.96,9.034,3.96,8.384,3.96z"/>
</g>
</svg>
