<?xml version="1.0" encoding="UTF-8"?>
<svg width="30" height="30" viewBox="0 0 50 50">
<g id="surface1">
<path style=" stroke:none;fill-rule:nonzero;fill:rgb(100%,100%,100%);fill-opacity:1;" d="M 25 0 C 11.195312 0 0 11.195312 0 25 C 0 38.804688 11.195312 50 25 50 C 38.804688 50 50 38.804688 50 25 C 50 11.195312 38.804688 0 25 0 Z M 20.832031 33.332031 L 16.667969 33.332031 L 16.667969 20.832031 L 20.832031 20.832031 Z M 18.75 18.976562 C 17.484375 18.976562 16.457031 17.945312 16.457031 16.667969 C 16.457031 15.390625 17.484375 14.355469 18.75 14.355469 C 20.015625 14.355469 21.042969 15.390625 21.042969 16.667969 C 21.042969 17.945312 20.015625 18.976562 18.75 18.976562 Z M 35.417969 33.332031 L 31.253906 33.332031 L 31.253906 27.371094 C 31.253906 23.453125 27.082031 23.785156 27.082031 27.371094 L 27.082031 33.332031 L 22.917969 33.332031 L 22.917969 20.832031 L 27.082031 20.832031 L 27.082031 23.109375 C 28.898438 19.742188 35.417969 19.492188 35.417969 26.335938 Z M 35.417969 33.332031 "/>
</g>
</svg>
