<?xml version="1.0" encoding="utf-8"?>
<!-- Generator: Adobe Illustrator 16.0.0, SVG Export Plug-In . SVG Version: 6.00 Build 0)  -->
<!DOCTYPE svg PUBLIC "-//W3C//DTD SVG 1.1//EN" "http://www.w3.org/Graphics/SVG/1.1/DTD/svg11.dtd">
<svg version="1.1" id="Layer_1" xmlns="http://www.w3.org/2000/svg" xmlns:xlink="http://www.w3.org/1999/xlink" x="0px" y="0px"
	 width="13.002px" height="13px" viewBox="0 0 13.002 13" enable-background="new 0 0 13.002 13" xml:space="preserve">
<path fill-rule="evenodd" clip-rule="evenodd" fill="#FFFFFF" d="M6.504,0.465c-3.336,0-6.037,2.702-6.037,6.034
	c0,3.331,2.7,6.033,6.037,6.033c3.331,0,6.03-2.702,6.03-6.033C12.534,3.167,9.835,0.465,6.504,0.465z M10.363,4.954
	c-0.058,0.04-0.071,0.08-0.068,0.146c0.017,1.31-0.399,2.473-1.238,3.48c-0.777,0.928-1.777,1.482-2.97,1.671
	c-1.265,0.195-2.453-0.023-3.545-0.69c-0.015-0.013-0.025-0.017-0.04-0.023c0.645,0.046,1.268-0.05,1.86-0.318
	c0.262-0.11,0.505-0.255,0.744-0.441C4.823,8.766,4.572,8.703,4.34,8.58C3.938,8.375,3.657,8.057,3.484,7.639
	c-0.04-0.103-0.04-0.103,0.075-0.093C3.834,7.573,4.042,7.566,4.21,7.5C4.055,7.45,3.912,7.414,3.785,7.34
	C3.189,7.009,2.873,6.505,2.822,5.823C2.813,5.74,2.836,5.733,2.91,5.769c0.21,0.113,0.437,0.166,0.702,0.183
	C3.495,5.855,3.395,5.772,3.307,5.68c-0.494-0.524-0.613-1.376-0.28-2.02C3.07,3.575,3.09,3.575,3.153,3.651
	c0.826,0.951,1.858,1.532,3.102,1.73c0.132,0.02,0.269,0.027,0.403,0.046C6.741,5.444,6.753,5.401,6.74,5.332
	c-0.131-0.743,0.219-1.486,0.885-1.86C8.297,3.081,9.176,3.197,9.73,3.734C9.789,3.79,9.844,3.803,9.92,3.78
	c0.33-0.079,0.646-0.199,0.943-0.368c0.02-0.01,0.042-0.02,0.074-0.043c-0.132,0.417-0.384,0.729-0.754,0.981
	c0.349-0.033,0.655-0.136,0.957-0.252c0.01,0.046-0.021,0.073-0.041,0.099C10.893,4.486,10.647,4.738,10.363,4.954z"/>
</svg>
