<?xml version="1.0" encoding="utf-8"?>
<!-- Generator: Adobe Illustrator 16.0.0, SVG Export Plug-In . SVG Version: 6.00 Build 0)  -->
<!DOCTYPE svg PUBLIC "-//W3C//DTD SVG 1.1//EN" "http://www.w3.org/Graphics/SVG/1.1/DTD/svg11.dtd">
<svg version="1.1" id="Layer_1" xmlns="http://www.w3.org/2000/svg" xmlns:xlink="http://www.w3.org/1999/xlink" x="0px" y="0px"
	 width="13.002px" height="13px" viewBox="0 0 13.002 13" enable-background="new 0 0 13.002 13" xml:space="preserve">
<g>
	<path fill="#FFFFFF" d="M7.137,3.58c-1.24-0.265-2.274,0.149-3.036,1.157c-0.73,0.975-0.75,2.277-0.101,3.329
		C4.048,8.141,4.055,8.201,4.035,8.29c-0.086,0.295-0.173,0.6-0.252,0.902C3.77,9.251,3.77,9.265,3.836,9.245
		C4.161,9.162,4.479,9.086,4.791,9c0.072-0.03,0.126-0.013,0.185,0.023C5.447,9.304,5.964,9.45,6.593,9.45
		c0.087,0,0.247-0.01,0.411-0.04c1.671-0.272,2.792-1.926,2.408-3.587C9.12,4.617,8.35,3.832,7.137,3.58z M7.667,8.174
		c-0.072,0.017-0.151,0.02-0.232,0.017C7.31,8.194,7.19,8.171,7.071,8.135c-0.829-0.239-1.446-0.75-1.943-1.432
		C4.949,6.454,4.771,6.192,4.717,5.871C4.645,5.489,4.751,5.164,5.036,4.906c0.092-0.083,0.371-0.119,0.477-0.066
		c0.041,0.02,0.067,0.053,0.081,0.096c0.112,0.246,0.211,0.494,0.311,0.733c0.02,0.053,0.007,0.1-0.013,0.14
		C5.845,5.923,5.758,6.013,5.672,6.109c-0.06,0.06-0.066,0.119-0.02,0.206c0.292,0.484,0.696,0.829,1.213,1.044
		c0.08,0.033,0.139,0.023,0.193-0.043c0.086-0.113,0.186-0.222,0.265-0.332c0.053-0.073,0.126-0.092,0.199-0.056
		c0.178,0.08,0.344,0.163,0.524,0.249c0.039,0.013,0.079,0.036,0.119,0.053c0.172,0.092,0.172,0.092,0.152,0.285
		C8.291,7.889,8.006,8.081,7.667,8.174z"/>
	<path fill="#FFFFFF" d="M6.501,0.463c-3.329,0-6.033,2.705-6.033,6.037c0,3.332,2.705,6.037,6.033,6.037
		c3.335,0,6.034-2.705,6.034-6.037C12.535,3.168,9.836,0.463,6.501,0.463z M7.21,9.984c-0.815,0.163-1.598,0.04-2.354-0.335
		c-0.04-0.02-0.073-0.026-0.126-0.016C4.154,9.792,3.57,9.938,2.994,10.087c-0.087,0.029-0.087,0.029-0.067-0.066
		c0.159-0.554,0.305-1.114,0.464-1.667c0.014-0.063,0.007-0.106-0.02-0.169C2.218,6.069,3.444,3.443,5.812,2.97
		C6.05,2.917,6.283,2.896,6.501,2.896c1.698,0.017,3.096,1.131,3.494,2.762C10.466,7.601,9.179,9.6,7.21,9.984z"/>
</g>
</svg>
