<?xml version="1.0" encoding="utf-8"?>
<!-- Generator: Adobe Illustrator 16.0.0, SVG Export Plug-In . SVG Version: 6.00 Build 0)  -->
<!DOCTYPE svg PUBLIC "-//W3C//DTD SVG 1.1//EN" "http://www.w3.org/Graphics/SVG/1.1/DTD/svg11.dtd">
<svg version="1.1" id="Layer_1" xmlns="http://www.w3.org/2000/svg" xmlns:xlink="http://www.w3.org/1999/xlink" x="0px" y="0px"
	 width="13.002px" height="13px" viewBox="0 0 13.002 13" enable-background="new 0 0 13.002 13" xml:space="preserve">
<path fill="#FFFFFF" d="M6.501,0.467c-3.334,0-6.034,2.705-6.034,6.036c0,3.332,2.7,6.03,6.034,6.03c3.333,0,6.034-2.698,6.034-6.03
	C12.535,3.171,9.834,0.467,6.501,0.467z M9.98,7.813c0,0.606-0.493,1.091-1.099,1.091H4.119c-0.605,0-1.1-0.484-1.1-1.091V5.197
	c0-0.607,0.494-1.101,1.1-1.101h4.763c0.605,0,1.099,0.494,1.099,1.101V7.813z"/>
<g>
	<polygon fill="#FFFFFF" points="8.374,6.503 5.855,8.333 5.855,4.673 	"/>
</g>
</svg>
